<svg width="0" height="0" class="hidden">
  <symbol fill="none" xmlns="http://www.w3.org/2000/svg" viewBox="0 0 182 34" id="logo">
    <path d="M1.17672 26.2565C0.392241 24.6545 0 22.7705 0 20.6047C0 18.4389 0.375898 16.5253 1.12769 14.8639C1.91218 13.1728 2.9745 11.719 4.31466 10.5026C7.15841 7.9808 10.7213 6.7199 15.0032 6.7199C19.4813 6.7199 23.1749 7.65445 26.0841 9.52356C29.3527 11.6597 30.9871 14.7155 30.9871 18.6911C30.9871 23.6161 29.7286 27.2504 27.2117 29.5942C24.7276 31.938 20.8378 33.1099 15.5426 33.1099C8.18804 33.1099 3.39943 30.8255 1.17672 26.2565ZM4.02047 19.7147C4.02047 26.7164 7.9102 30.2173 15.6897 30.2173C19.514 30.2173 22.6193 29.1789 25.0054 27.1021C27.3915 25.055 28.5846 22.37 28.5846 19.0471C28.5846 15.9319 27.1627 13.5585 24.319 11.9267C21.9001 10.5026 18.8439 9.79058 15.1503 9.79058C12.2085 9.79058 9.60991 10.7548 7.35453 12.6832C5.13182 14.6117 4.02047 16.9555 4.02047 19.7147Z" fill="#C62100"></path>
    <path d="M53.0016 23.9869C53.0016 20.4564 52.7892 17.8604 52.3642 16.199C52.6257 15.7539 52.2335 15.5314 51.1875 15.5314C50.0761 15.5314 48.6379 15.7836 46.8728 16.288C45.1078 16.7923 43.6695 17.2967 42.5582 17.801C39.9106 18.9581 38.4397 20.0855 38.1455 21.1832V33.288H34.8605C34.4355 32.2792 34.2231 29.4459 34.2231 24.788C34.2231 20.6344 34.3048 17.5785 34.4682 15.6204C34.6643 13.6623 34.8114 12.5497 34.9095 12.2827C35.7593 11.7784 36.4458 11.5262 36.9688 11.5262C37.7859 11.5262 38.1945 12.4014 38.1945 14.1518C38.1945 14.8342 38.1455 15.5017 38.0474 16.1545C37.982 16.7775 37.9494 17.2077 37.9494 17.445C43.2446 13.9145 47.3468 12.1492 50.2559 12.1492C53.5573 12.1492 55.4368 14.5672 55.8944 19.4031C56.0905 21.0942 56.1886 23.438 56.1886 26.4346L56.1395 29.9503C56.1395 31.2557 56.1722 32.5166 56.2376 33.733C55.9107 33.911 55.6492 34 55.4531 34C55.3551 33.9703 55.1426 33.9258 54.8157 33.8665C54.4889 33.8072 54.0639 33.7627 53.5409 33.733C53.2141 32.5462 53.0343 31.3447 53.0016 30.1283C52.9689 28.8822 52.9526 27.74 52.9526 26.7016L53.0016 23.9869Z" fill="#C62100"></path>
    <path d="M95.0695 26.3456C96.7038 21.5393 98.5997 12.7574 100.757 0C102.816 0 103.895 0.578534 103.993 1.7356C104.026 2.09162 104.042 2.3438 104.042 2.49215C104.075 2.64049 104.026 3.15969 103.895 4.04974C103.764 4.91012 103.568 6.12653 103.307 7.69895C103.078 9.27138 102.784 11.096 102.424 13.1728C102.064 15.2496 101.656 17.4154 101.198 19.6702C100.087 24.9808 98.9429 29.4607 97.7662 33.1099C96.5894 33.8517 95.6742 33.9703 95.0205 33.466C94.7263 33.199 94.4648 32.8429 94.236 32.3979C94.0072 31.9232 93.7457 31.3892 93.4515 30.7958C93.0266 30.2914 92.2421 28.9564 91.0981 26.7906C89.954 24.6248 89.0224 22.904 88.3033 21.6283C87.6169 20.3525 86.9468 19.1658 86.2931 18.0681C84.7895 15.6056 83.5311 14.1667 82.5178 13.7513C81.3411 15.4127 79.2491 19.9668 76.2419 27.4136C75.7189 28.719 75.245 29.9354 74.82 31.0628C74.3951 32.1606 74.0356 33.0506 73.7414 33.733L70.7015 33.5995L58.444 7.87696C58.3786 7.72862 58.3459 7.58028 58.3459 7.43194C58.3459 7.2836 58.3949 7.13525 58.493 6.98691C58.6237 6.83857 58.8362 6.70506 59.1304 6.58639C59.6861 6.40838 60.2417 6.31937 60.7974 6.31937C61.3531 6.31937 61.7453 6.42321 61.9741 6.63089C62.2356 6.8089 62.4318 7.04625 62.5625 7.34293C62.7259 7.63962 62.8567 7.96597 62.9547 8.32199C63.0528 8.67801 63.2326 9.13787 63.4941 9.70157C63.7883 10.2653 64.1968 11.096 64.7198 12.1937C65.2755 13.2914 65.8639 14.4485 66.4849 15.6649C67.106 16.8813 67.727 18.0977 68.3481 19.3141C68.9691 20.5009 69.5575 21.5986 70.1131 22.6073C71.2899 24.8325 72.0253 26.0785 72.3195 26.3456C76.1112 17.8604 78.4483 12.8316 79.3308 11.2592C80.2134 9.65707 80.769 8.67801 80.9978 8.32199C81.3574 7.81763 81.6352 7.56544 81.8314 7.56544C83.2369 7.56544 85.6067 10.4136 88.9407 16.1099C89.856 17.623 90.7058 19.0768 91.4903 20.4712C93.4188 23.8534 94.6119 25.8115 95.0695 26.3456Z" fill="#C62100"></path>
    <path d="M125.468 26.3456C123.017 29.8464 119.748 32.0122 115.662 32.8429C114.714 33.0209 113.848 33.1099 113.064 33.1099C112.312 33.1099 111.674 33.1099 111.151 33.1099C110.661 33.0803 110.105 33.0061 109.484 32.8874C108.863 32.7688 108.291 32.5759 107.768 32.3089C106.559 31.6859 105.954 30.8106 105.954 29.6832C105.823 29.1492 105.758 28.5558 105.758 27.9031C105.758 27.2208 105.922 26.3307 106.248 25.233C106.575 24.1353 107.164 22.9485 108.013 21.6728C108.896 20.397 109.958 19.2251 111.2 18.1571C113.783 15.9023 116.577 14.4485 119.585 13.7958C120.467 13.6178 121.268 13.5288 121.987 13.5288C122.739 13.5288 123.409 13.5733 123.997 13.6623C125.893 13.6623 127.168 14.8342 127.822 17.178C128.247 18.6614 128.492 20.7382 128.557 23.4084C128.655 26.0489 128.737 28.096 128.802 29.5497C128.9 30.9738 129.113 32.2792 129.44 33.466H126.547C126.416 32.6649 126.318 31.9529 126.253 31.3298C126.187 30.7068 126.122 30.1283 126.057 29.5942C125.893 28.3482 125.697 27.2653 125.468 26.3456ZM125.272 19.4476C125.272 17.7269 124.341 16.8665 122.477 16.8665C122.249 16.8368 122.02 16.822 121.791 16.822C119.405 16.822 116.888 17.8604 114.24 19.9372C112.998 20.8866 111.936 21.9546 111.053 23.1414C109.746 24.8325 109.092 26.3456 109.092 27.6806C109.092 29.4311 110.203 30.4695 112.426 30.7958C115.368 30.7365 118.179 29.5201 120.859 27.1466C122.003 26.1082 122.951 24.9808 123.703 23.7644C124.749 22.1326 125.272 20.6937 125.272 19.4476Z" fill="#C62100"></path>
    <path d="M132.185 16.5105C132.12 16.3621 132.087 16.199 132.087 16.0209C132.087 15.8133 132.169 15.5462 132.332 15.2199C132.496 14.8935 132.725 14.6117 133.019 14.3743C133.346 14.137 133.689 14.0332 134.048 14.0628C134.441 14.0628 134.751 14.2705 134.98 14.6859L143.217 28.5707C143.479 28.2147 143.887 27.562 144.443 26.6126C145.031 25.6335 145.685 24.5358 146.404 23.3194C147.156 22.103 147.924 20.8421 148.709 19.5366C149.526 18.2016 150.277 16.9852 150.964 15.8874C152.533 13.3656 153.464 12.1047 153.759 12.1047C154.445 12.1047 154.935 12.3421 155.23 12.8168C155.556 13.2618 155.72 13.603 155.72 13.8403C155.72 14.0777 155.72 14.2408 155.72 14.3298C153.889 17.9494 152.19 21.2871 150.621 24.3429C149.084 27.3988 148.055 29.3866 147.532 30.3063C147.041 31.1963 146.6 31.9084 146.208 32.4424C145.522 33.3621 144.851 33.822 144.198 33.822C143.544 33.822 142.792 33.3621 141.942 32.4424C141.092 31.493 140.128 30.2321 139.05 28.6597C137.154 25.8115 134.866 21.7618 132.185 16.5105Z" fill="#C62100"></path>
    <path d="M167.781 30.6178C170.658 30.6178 174.989 29.4311 180.774 27.0576C181.134 27.0576 181.428 27.1763 181.657 27.4136C181.886 27.6213 182 27.8735 182 28.1702C180.693 30.1876 178.192 31.76 174.498 32.8874C170.805 34.0148 167.356 34.2077 164.153 33.466C160.525 32.6056 158.318 30.7513 157.534 27.9031C157.469 27.3394 157.436 26.5829 157.436 25.6335C157.436 24.6841 157.697 23.438 158.22 21.8953C158.776 20.3229 159.708 18.8394 161.015 17.445C162.323 16.0506 163.859 14.9529 165.624 14.1518C167.389 13.3508 169.268 12.9503 171.262 12.9503C173.158 12.9503 175.283 13.5436 177.636 14.7304C178.748 15.2941 179.63 15.9319 180.284 16.644C180.938 17.356 181.265 18.0829 181.265 18.8246C181.265 19.0323 181.248 19.24 181.216 19.4476C181.15 21.2574 180.186 22.3997 178.323 22.8743C177.506 23.082 176.558 23.1859 175.479 23.1859L168.419 22.9188C166.065 22.9188 164.267 23.3787 163.025 24.2984C162.306 24.8028 161.8 25.5593 161.505 26.5681C162.323 29.2679 164.415 30.6178 167.781 30.6178ZM176.509 16.8665C175.79 16.3918 175.038 16.0506 174.253 15.8429C173.469 15.6353 172.815 15.5314 172.292 15.5314C171.769 15.5314 170.919 15.6946 169.742 16.0209C168.566 16.3176 167.52 16.6588 166.605 17.0445C164.349 17.9939 163.221 18.9878 163.221 20.0262C165.836 20.2339 167.798 20.3377 169.105 20.3377C172.733 20.3377 175.185 20.0558 176.46 19.4921C177.244 19.1955 177.636 18.8246 177.636 18.3796C177.636 17.8456 177.26 17.3412 176.509 16.8665Z" fill="#C62100"></path>
  </symbol>

  <symbol fill="none" xmlns="http://www.w3.org/2000/svg" viewBox="0 0 36 36" id="search-icon">
    <path d="M36 34.1172L25.944 24.0611C28.3605 21.1601 29.5655 17.439 29.3084 13.6721C29.0513 9.90519 27.3518 6.38241 24.5635 3.83662C21.7751 1.29083 18.1127 -0.0819787 14.338 0.00378988C10.5633 0.0895584 6.96692 1.6273 4.29711 4.29711C1.6273 6.96692 0.0895584 10.5633 0.00378988 14.338C-0.0819787 18.1127 1.29083 21.7751 3.83662 24.5635C6.38241 27.3518 9.90519 29.0513 13.6721 29.3084C17.439 29.5655 21.1601 28.3605 24.0611 25.944L34.1172 36L36 34.1172ZM2.71076 14.6949C2.71076 12.3246 3.41361 10.0076 4.73045 8.03686C6.04728 6.06608 7.91894 4.53004 10.1088 3.62299C12.2986 2.71594 14.7082 2.47862 17.0329 2.94103C19.3576 3.40344 21.4929 4.54482 23.1689 6.22083C24.845 7.89684 25.9863 10.0322 26.4487 12.3569C26.9112 14.6816 26.6738 17.0912 25.7668 19.281C24.8597 21.4708 23.3237 23.3425 21.3529 24.6593C19.3821 25.9762 17.0651 26.679 14.6949 26.679C11.5176 26.6755 8.47142 25.4117 6.22472 23.1651C3.97802 20.9184 2.71428 17.8722 2.71076 14.6949Z" fill="black"></path>
  </symbol>

  <symbol fill="none" xmlns="http://www.w3.org/2000/svg" viewBox="0 0 38 38" id="profile-icon">
    <path d="M19 1C9.0586 1 1 9.0586 1 19C1 28.9414 9.0586 37 19 37C28.9414 37 37 28.9414 37 19C37 9.0586 28.9414 1 19 1Z" stroke="black" stroke-width="2" stroke-linecap="round" stroke-linejoin="round"></path>
    <path d="M5 30C5 30 9.03726 24.9286 18.9991 24.9286C28.9609 24.9286 33 30 33 30H5ZM18.9991 18.6917C20.4402 18.6917 21.8223 18.1285 22.8413 17.126C23.8603 16.1234 24.4328 14.7637 24.4328 13.3459C24.4328 11.9281 23.8603 10.5683 22.8413 9.56577C21.8223 8.56322 20.4402 8 18.9991 8C17.558 8 16.1759 8.56322 15.1569 9.56577C14.1378 10.5683 13.5654 11.9281 13.5654 13.3459C13.5654 14.7637 14.1378 16.1234 15.1569 17.126C16.1759 18.1285 17.558 18.6917 18.9991 18.6917V18.6917Z" stroke="black" stroke-width="2" stroke-linecap="round" stroke-linejoin="round"></path>
  </symbol>


  <symbol fill="none" xmlns="http://www.w3.org/2000/svg" viewBox="0 0 30 31" id="instagram">
    <path d="M15 8.45918C13.6075 8.45918 12.2462 8.87212 11.0883 9.64577C9.93048 10.4194 9.02804 11.5191 8.49513 12.8056C7.96223 14.0921 7.8228 15.5078 8.09447 16.8736C8.36614 18.2394 9.03672 19.4939 10.0214 20.4786C11.0061 21.4633 12.2606 22.1339 13.6264 22.4055C14.9922 22.6772 16.4079 22.5378 17.6944 22.0049C18.9809 21.472 20.0806 20.5695 20.8542 19.4117C21.6279 18.2538 22.0408 16.8925 22.0408 15.5C22.0408 13.6327 21.299 11.8418 19.9786 10.5214C18.6582 9.20098 16.8673 8.45918 15 8.45918ZM15 20.7041C13.9707 20.7041 12.9646 20.3989 12.1088 19.827C11.253 19.2552 10.5859 18.4424 10.1921 17.4915C9.79817 16.5406 9.69511 15.4942 9.89591 14.4847C10.0967 13.4752 10.5924 12.548 11.3202 11.8202C12.048 11.0924 12.9752 10.5967 13.9847 10.3959C14.9942 10.1951 16.0406 10.2982 16.9915 10.6921C17.9424 11.0859 18.7552 11.753 19.327 12.6088C19.8989 13.4646 20.2041 14.4707 20.2041 15.5C20.2 16.879 19.6505 18.2003 18.6754 19.1754C17.7003 20.1505 16.379 20.7 15 20.7041ZM21.7347 0.5H8.26531C6.07321 0.5 3.9709 1.37081 2.42085 2.92085C0.870807 4.4709 0 6.57321 0 8.76531V22.2347C0 24.4268 0.870807 26.5291 2.42085 28.0791C3.9709 29.6292 6.07321 30.5 8.26531 30.5H21.7347C23.9268 30.5 26.0291 29.6292 27.5791 28.0791C29.1292 26.5291 30 24.4268 30 22.2347V8.76531C30 6.57321 29.1292 4.4709 27.5791 2.92085C26.0291 1.37081 23.9268 0.5 21.7347 0.5ZM28.1633 22.2347C28.1633 23.9397 27.486 25.5748 26.2804 26.7804C25.0748 27.986 23.4397 28.6633 21.7347 28.6633H8.26531C6.56034 28.6633 4.92521 27.986 3.71962 26.7804C2.51403 25.5748 1.83673 23.9397 1.83673 22.2347V8.76531C1.83673 7.06034 2.51403 5.42521 3.71962 4.21962C4.92521 3.01403 6.56034 2.33673 8.26531 2.33673H21.7347C23.4397 2.33673 25.0748 3.01403 26.2804 4.21962C27.486 5.42521 28.1633 7.06034 28.1633 8.76531V22.2347ZM24.4898 7.54082C24.4898 7.84354 24.4 8.13947 24.2318 8.39118C24.0637 8.64289 23.8246 8.83907 23.5449 8.95492C23.2652 9.07077 22.9575 9.10108 22.6606 9.04202C22.3637 8.98296 22.0909 8.83718 21.8769 8.62312C21.6628 8.40906 21.517 8.13633 21.458 7.83942C21.3989 7.54251 21.4292 7.23476 21.5451 6.95508C21.6609 6.67539 21.8571 6.43634 22.1088 6.26816C22.3605 6.09997 22.6565 6.0102 22.9592 6.0102C23.3651 6.0102 23.7544 6.17146 24.0415 6.45851C24.3285 6.74556 24.4898 7.13487 24.4898 7.54082Z" fill="#F8F1EA"></path>
  </symbol>

  <symbol fill="none" xmlns="http://www.w3.org/2000/svg" viewBox="0 0 15 31" id="facebook">
    <path d="M3.82915 30.5V16.4231H0V11.3548H3.82915V7.02575C3.82915 3.62396 6.09105 0.5 11.3029 0.5C13.4131 0.5 14.9736 0.69665 14.9736 0.69665L14.8506 5.42963C14.8506 5.42963 13.2592 5.41457 11.5227 5.41457C9.64319 5.41457 9.34207 6.25652 9.34207 7.65395V11.3548H15L14.7538 16.4231H9.34207V30.5H3.82915Z" fill="#F8F1EA"></path>
  </symbol>

  <symbol fill="none" xmlns="http://www.w3.org/2000/svg" viewBox="0 0 23 31" id="pinterest">
    <path d="M12.2193 0.5C6.07321 0.5 0 4.61108 0 11.2648C0 15.4961 2.37197 17.9002 3.80953 17.9002C4.40277 17.9002 4.74395 16.2414 4.74395 15.773C4.74395 15.2143 3.3246 14.0238 3.3246 11.6975C3.3246 6.86521 6.99037 3.43882 11.7343 3.43882C15.8132 3.43882 18.832 5.76507 18.832 10.0387C18.832 13.2304 17.5564 19.2167 13.423 19.2167C11.9317 19.2167 10.6552 18.1349 10.6552 16.5847C10.6552 14.3123 12.2365 12.113 12.2365 9.76845C12.2365 5.79008 6.61182 6.51132 6.61182 11.3196C6.61182 12.3293 6.73736 13.4468 7.18684 14.3671C6.35976 17.9377 4.67111 23.2567 4.67111 26.935C4.67111 28.0707 4.83308 29.1891 4.94041 30.3248C5.14359 30.5537 5.042 30.5297 5.35347 30.4152C8.37235 26.2676 8.26501 25.4569 9.63069 20.0293C10.3677 21.4362 12.272 22.1931 13.7814 22.1931C20.1421 22.1931 23 15.9721 23 10.3647C23 4.39663 17.8602 0.501923 12.2183 0.501923L12.2193 0.5Z" fill="#F8F1EA"></path>
  </symbol>


  <symbol fill="none" xmlns="http://www.w3.org/2000/svg" viewBox="0 0 38 33" id="twitter">
    <path d="M37 1.51681C37 1.51681 33.6978 3.50971 31.8618 4.07482C30.8763 2.91704 29.5665 2.09645 28.1097 1.724C26.6528 1.35156 25.1192 1.44525 23.7161 1.99239C22.3131 2.53953 21.1084 3.51373 20.2649 4.78323C19.4214 6.05272 18.9799 7.55627 19 9.09051V10.7624C16.1243 10.8386 13.2748 10.187 10.7053 8.86555C8.13576 7.54414 5.92597 5.59396 4.27273 3.18871C4.27273 3.18871 -2.27273 18.2358 12.4545 24.9234C9.0845 27.2606 5.06989 28.4326 1 28.2672C15.7273 36.6267 33.7273 28.2672 33.7273 9.04035C33.7273 8.57556 33.6815 8.11078 33.5964 7.65268C35.2655 5.97075 37 1.51681 37 1.51681Z" stroke="#F16A50" stroke-width="2" stroke-linecap="round" stroke-linejoin="round"></path>
  </symbol>

  <symbol fill="none" xmlns="http://www.w3.org/2000/svg" viewBox="0 0 42 33" id="youtube">
    <path d="M40.112 6.19136C39.8841 5.28269 39.4378 4.4542 38.8178 3.78882C38.1978 3.12343 37.4258 2.6445 36.579 2.39994C34.265 1.44055 11.8472 0.970516 5.34322 2.42677C4.49637 2.67142 3.72428 3.15052 3.10424 3.8161C2.48419 4.48169 2.03797 5.3104 1.81024 6.21926C0.765246 11.1375 0.686247 21.7702 1.83624 26.7989C2.06412 27.7076 2.51042 28.5361 3.13045 29.2015C3.75048 29.8668 4.52249 30.3458 5.36922 30.5903C9.95219 31.7225 31.7401 31.8813 36.605 30.5903C37.4518 30.3458 38.2238 29.8668 38.8438 29.2015C39.4638 28.5361 39.9101 27.7076 40.138 26.7989C41.252 21.4407 41.331 11.4669 40.112 6.19136V6.19136Z" stroke="#F8F1EA" stroke-width="2" stroke-linecap="round" stroke-linejoin="round"></path>
    <path d="M27 17L17 10.5V23.5L27 17Z" stroke="#F8F1EA" stroke-width="2" stroke-linecap="round" stroke-linejoin="round"></path>
  </symbol>
  
</svg>